<svg xmlns="http://www.w3.org/2000/svg" viewBox="0 0 64 64" role="img" aria-label="TokenIQ"><circle cx="45.00" cy="32.00" r="2.10" fill="rgb(177,75,244)"/><circle cx="44.92" cy="35.63" r="1.95" fill="rgb(175,74,244)"/><circle cx="43.95" cy="39.28" r="1.84" fill="rgb(168,72,243)"/><circle cx="41.98" cy="42.72" r="1.73" fill="rgb(158,69,242)"/><circle cx="39.04" cy="45.65" r="1.64" fill="rgb(145,65,240)"/><circle cx="35.24" cy="47.78" r="1.55" fill="rgb(130,60,238)"/><circle cx="30.80" cy="48.86" r="1.46" fill="rgb(112,63,240)"/><circle cx="26.00" cy="48.69" r="1.38" fill="rgb(93,72,244)"/><circle cx="21.21" cy="47.15" r="1.30" fill="rgb(76,79,248)"/><circle cx="16.83" cy="44.23" r="1.22" fill="rgb(62,85,251)"/><circle cx="13.25" cy="40.03" r="1.14" fill="rgb(52,90,254)"/><circle cx="10.85" cy="34.79" r="1.07" fill="rgb(47,92,255)"/><circle cx="9.94" cy="28.83" r="0.99" fill="rgb(47,92,255)"/><circle cx="10.72" cy="22.59" r="0.92" fill="rgb(52,89,254)"/><circle cx="13.29" cy="16.56" r="0.85" fill="rgb(62,85,251)"/><circle cx="17.58" cy="11.24" r="0.78" fill="rgb(76,79,248)"/><circle cx="23.39" cy="7.14" r="0.71" fill="rgb(94,71,244)"/><circle cx="30.37" cy="4.69" r="0.64" fill="rgb(113,63,240)"/><circle cx="38.03" cy="4.23" r="0.57" fill="rgb(131,60,238)"/><circle cx="45.82" cy="5.94" r="0.50" fill="rgb(146,65,240)"/><circle cx="41.96" cy="40.36" r="2.10" fill="rgb(163,71,242)"/><circle cx="39.56" cy="43.08" r="1.95" fill="rgb(151,67,241)"/><circle cx="36.47" cy="45.26" r="1.84" fill="rgb(137,62,239)"/><circle cx="32.76" cy="46.62" r="1.73" fill="rgb(121,59,238)"/><circle cx="28.62" cy="46.98" r="1.64" fill="rgb(101,68,242)"/><circle cx="24.34" cy="46.17" r="1.55" fill="rgb(83,76,246)"/><circle cx="20.24" cy="44.14" r="1.46" fill="rgb(68,83,250)"/><circle cx="16.68" cy="40.93" r="1.38" fill="rgb(56,88,253)"/><circle cx="14.00" cy="36.67" r="1.30" fill="rgb(48,91,254)"/><circle cx="12.52" cy="31.62" r="1.22" fill="rgb(46,92,255)"/><circle cx="12.47" cy="26.10" r="1.14" fill="rgb(49,91,254)"/><circle cx="14.01" cy="20.54" r="1.07" fill="rgb(57,87,252)"/><circle cx="17.13" cy="15.39" r="0.99" fill="rgb(70,82,250)"/><circle cx="21.75" cy="11.11" r="0.92" fill="rgb(86,75,246)"/><circle cx="27.59" cy="8.14" r="0.85" fill="rgb(104,67,242)"/><circle cx="34.30" cy="6.83" r="0.78" fill="rgb(123,58,237)"/><circle cx="41.38" cy="7.42" r="0.71" fill="rgb(139,63,239)"/><circle cx="48.30" cy="10.03" r="0.64" fill="rgb(153,67,241)"/><circle cx="54.47" cy="14.60" r="0.57" fill="rgb(165,71,242)"/><circle cx="59.34" cy="20.92" r="0.50" fill="rgb(173,74,243)"/><circle cx="34.26" cy="44.80" r="2.10" fill="rgb(128,59,238)"/><circle cx="30.67" cy="45.35" r="1.95" fill="rgb(110,64,240)"/><circle cx="26.90" cy="45.03" r="1.84" fill="rgb(91,72,245)"/><circle cx="23.18" cy="43.69" r="1.73" fill="rgb(74,80,248)"/><circle cx="19.78" cy="41.30" r="1.64" fill="rgb(60,86,252)"/><circle cx="17.02" cy="37.93" r="1.55" fill="rgb(51,90,254)"/><circle cx="15.18" cy="33.74" r="1.46" fill="rgb(46,92,255)"/><circle cx="14.52" cy="28.99" r="1.38" fill="rgb(47,92,255)"/><circle cx="15.21" cy="24.01" r="1.30" fill="rgb(53,89,253)"/><circle cx="17.32" cy="19.18" r="1.22" fill="rgb(63,84,251)"/><circle cx="20.83" cy="14.93" r="1.14" fill="rgb(78,78,248)"/><circle cx="25.58" cy="11.66" r="1.07" fill="rgb(96,70,244)"/><circle cx="31.29" cy="9.72" r="0.99" fill="rgb(115,62,239)"/><circle cx="37.57" cy="9.41" r="0.92" fill="rgb(132,61,238)"/><circle cx="43.96" cy="10.89" r="0.85" fill="rgb(147,65,240)"/><circle cx="49.94" cy="14.19" r="0.78" fill="rgb(160,70,242)"/><circle cx="54.99" cy="19.20" r="0.71" fill="rgb(170,73,243)"/><circle cx="58.61" cy="25.65" r="0.64" fill="rgb(175,74,244)"/><circle cx="60.40" cy="33.12" r="0.57" fill="rgb(177,75,244)"/><circle cx="60.07" cy="41.09" r="0.50" fill="rgb(174,74,244)"/><circle cx="25.50" cy="43.26" r="2.10" fill="rgb(81,77,247)"/><circle cx="22.40" cy="41.37" r="1.95" fill="rgb(66,83,250)"/><circle cx="19.72" cy="38.70" r="1.84" fill="rgb(55,88,253)"/><circle cx="17.73" cy="35.28" r="1.73" fill="rgb(48,91,255)"/><circle cx="16.66" cy="31.27" r="1.64" fill="rgb(46,92,255)"/><circle cx="16.71" cy="26.91" r="1.55" fill="rgb(50,90,254)"/><circle cx="18.00" cy="22.53" r="1.46" fill="rgb(58,87,252)"/><circle cx="20.54" cy="18.46" r="1.38" fill="rgb(71,81,249)"/><circle cx="24.27" cy="15.09" r="1.30" fill="rgb(87,74,245)"/><circle cx="29.00" cy="12.75" r="1.22" fill="rgb(106,66,241)"/><circle cx="34.42" cy="11.75" r="1.14" fill="rgb(125,58,237)"/><circle cx="40.16" cy="12.29" r="1.07" fill="rgb(141,63,239)"/><circle cx="45.78" cy="14.48" r="0.99" fill="rgb(155,68,241)"/><circle cx="50.79" cy="18.28" r="0.92" fill="rgb(166,71,243)"/><circle cx="54.73" cy="23.52" r="0.85" fill="rgb(173,74,244)"/><circle cx="57.19" cy="29.89" r="0.78" fill="rgb(177,75,244)"/><circle cx="57.84" cy="36.97" r="0.71" fill="rgb(176,75,244)"/><circle cx="56.47" cy="44.24" r="0.64" fill="rgb(171,73,243)"/><circle cx="53.04" cy="51.11" r="0.57" fill="rgb(162,70,242)"/><circle cx="47.66" cy="57.00" r="0.50" fill="rgb(149,66,240)"/><circle cx="19.78" cy="36.45" r="2.10" fill="rgb(50,90,254)"/><circle cx="18.62" cy="33.01" r="1.95" fill="rgb(46,92,255)"/><circle cx="18.28" cy="29.24" r="1.84" fill="rgb(47,91,255)"/><circle cx="18.96" cy="25.34" r="1.73" fill="rgb(54,89,253)"/><circle cx="20.72" cy="21.58" r="1.64" fill="rgb(65,84,251)"/><circle cx="23.56" cy="18.28" r="1.55" fill="rgb(80,77,247)"/><circle cx="27.36" cy="15.74" r="1.46" fill="rgb(97,70,243)"/><circle cx="31.93" cy="14.26" r="1.38" fill="rgb(117,61,239)"/><circle cx="36.95" cy="14.08" r="1.30" fill="rgb(134,61,238)"/><circle cx="42.07" cy="15.32" r="1.22" fill="rgb(149,66,240)"/><circle cx="46.87" cy="18.04" r="1.14" fill="rgb(161,70,242)"/><circle cx="50.92" cy="22.15" r="1.07" fill="rgb(170,73,243)"/><circle cx="53.82" cy="27.43" r="0.99" fill="rgb(176,75,244)"/><circle cx="55.22" cy="33.56" r="0.92" fill="rgb(177,75,244)"/><circle cx="54.87" cy="40.11" r="0.85" fill="rgb(174,74,244)"/><circle cx="52.65" cy="46.58" r="0.78" fill="rgb(166,72,243)"/><circle cx="48.60" cy="52.42" r="0.71" fill="rgb(155,68,241)"/><circle cx="42.88" cy="57.10" r="0.64" fill="rgb(142,64,239)"/><circle cx="35.83" cy="60.16" r="0.57" fill="rgb(126,59,237)"/><circle cx="27.93" cy="61.22" r="0.50" fill="rgb(107,65,241)"/><circle cx="19.78" cy="27.55" r="2.10" fill="rgb(50,90,254)"/><circle cx="21.10" cy="24.17" r="1.95" fill="rgb(59,86,252)"/><circle cx="23.27" cy="21.07" r="1.84" fill="rgb(73,80,249)"/><circle cx="26.29" cy="18.52" r="1.73" fill="rgb(89,73,245)"/><circle cx="30.06" cy="16.77" r="1.64" fill="rgb(108,65,241)"/><circle cx="34.35" cy="16.06" r="1.55" fill="rgb(127,59,237)"/><circle cx="38.90" cy="16.57" r="1.46" fill="rgb(142,64,239)"/><circle cx="43.35" cy="18.37" r="1.38" fill="rgb(156,68,241)"/><circle cx="47.32" cy="21.45" r="1.30" fill="rgb(167,72,243)"/><circle cx="50.44" cy="25.70" r="1.22" fill="rgb(174,74,244)"/><circle cx="52.37" cy="30.86" r="1.14" fill="rgb(177,75,244)"/><circle cx="52.83" cy="36.61" r="1.07" fill="rgb(176,75,244)"/><circle cx="51.65" cy="42.52" r="0.99" fill="rgb(170,73,243)"/><circle cx="48.78" cy="48.12" r="0.92" fill="rgb(161,70,242)"/><circle cx="44.30" cy="52.91" r="0.85" fill="rgb(148,66,240)"/><circle cx="38.45" cy="56.44" r="0.78" fill="rgb(133,61,238)"/><circle cx="31.59" cy="58.31" r="0.71" fill="rgb(116,62,239)"/><circle cx="24.19" cy="58.22" r="0.64" fill="rgb(97,70,243)"/><circle cx="16.83" cy="56.04" r="0.57" fill="rgb(79,78,247)"/><circle cx="10.10" cy="51.76" r="0.50" fill="rgb(64,84,251)"/><circle cx="25.50" cy="20.74" r="2.10" fill="rgb(81,77,247)"/><circle cx="28.68" cy="19.00" r="1.95" fill="rgb(99,69,243)"/><circle cx="32.33" cy="18.01" r="1.84" fill="rgb(119,60,238)"/><circle cx="36.29" cy="18.00" r="1.73" fill="rgb(135,62,239)"/><circle cx="40.30" cy="19.08" r="1.64" fill="rgb(150,66,240)"/><circle cx="44.05" cy="21.31" r="1.55" fill="rgb(162,70,242)"/><circle cx="47.21" cy="24.61" r="1.46" fill="rgb(171,73,243)"/><circle cx="49.45" cy="28.85" r="1.38" fill="rgb(176,75,244)"/><circle cx="50.51" cy="33.77" r="1.30" fill="rgb(177,75,244)"/><circle cx="50.17" cy="39.02" r="1.22" fill="rgb(173,74,243)"/><circle cx="48.33" cy="44.22" r="1.14" fill="rgb(165,71,242)"/><circle cx="44.99" cy="48.92" r="1.07" fill="rgb(154,68,241)"/><circle cx="40.29" cy="52.69" r="0.99" fill="rgb(140,63,239)"/><circle cx="34.49" cy="55.13" r="0.92" fill="rgb(124,58,237)"/><circle cx="27.98" cy="55.93" r="0.85" fill="rgb(105,66,241)"/><circle cx="21.23" cy="54.87" r="0.78" fill="rgb(87,74,246)"/><circle cx="14.78" cy="51.89" r="0.71" fill="rgb(70,81,249)"/><circle cx="9.17" cy="47.07" r="0.64" fill="rgb(58,87,252)"/><circle cx="4.93" cy="40.66" r="0.57" fill="rgb(49,91,254)"/><circle cx="2.52" cy="33.06" r="0.50" fill="rgb(46,92,255)"/><circle cx="34.26" cy="19.20" r="2.10" fill="rgb(128,59,238)"/><circle cx="37.81" cy="19.91" r="1.95" fill="rgb(144,64,240)"/><circle cx="41.24" cy="21.50" r="1.84" fill="rgb(157,69,241)"/><circle cx="44.29" cy="24.03" r="1.73" fill="rgb(168,72,243)"/><circle cx="46.66" cy="27.44" r="1.64" fill="rgb(174,74,244)"/><circle cx="48.10" cy="31.55" r="1.55" fill="rgb(177,75,244)"/><circle cx="48.40" cy="36.11" r="1.46" fill="rgb(175,74,244)"/><circle cx="47.40" cy="40.81" r="1.38" fill="rgb(169,73,243)"/><circle cx="45.05" cy="45.25" r="1.30" fill="rgb(159,69,242)"/><circle cx="41.41" cy="49.06" r="1.22" fill="rgb(147,65,240)"/><circle cx="36.65" cy="51.86" r="1.14" fill="rgb(132,60,238)"/><circle cx="31.07" cy="53.31" r="1.07" fill="rgb(114,62,239)"/><circle cx="25.05" cy="53.18" r="0.99" fill="rgb(95,71,244)"/><circle cx="19.04" cy="51.32" r="0.92" fill="rgb(77,78,248)"/><circle cx="13.54" cy="47.75" r="0.85" fill="rgb(63,85,251)"/><circle cx="9.05" cy="42.60" r="0.78" fill="rgb(53,89,253)"/><circle cx="6.02" cy="36.16" r="0.71" fill="rgb(47,92,255)"/><circle cx="4.82" cy="28.87" r="0.64" fill="rgb(46,92,255)"/><circle cx="5.70" cy="21.23" r="0.57" fill="rgb(51,90,254)"/><circle cx="8.73" cy="13.86" r="0.50" fill="rgb(61,85,252)"/><circle cx="41.96" cy="23.64" r="2.10" fill="rgb(163,71,242)"/><circle cx="44.23" cy="26.48" r="1.95" fill="rgb(172,73,243)"/><circle cx="45.83" cy="29.90" r="1.84" fill="rgb(176,75,244)"/><circle cx="46.53" cy="33.80" r="1.73" fill="rgb(177,75,244)"/><circle cx="46.16" cy="37.93" r="1.64" fill="rgb(172,74,243)"/><circle cx="44.62" cy="42.01" r="1.55" fill="rgb(164,71,242)"/><circle cx="41.92" cy="45.69" r="1.46" fill="rgb(153,67,241)"/><circle cx="38.13" cy="48.64" r="1.38" fill="rgb(138,63,239)"/><circle cx="33.48" cy="50.54" r="1.30" fill="rgb(123,59,237)"/><circle cx="28.24" cy="51.12" r="1.22" fill="rgb(103,67,242)"/><circle cx="22.80" cy="50.20" r="1.14" fill="rgb(85,75,246)"/><circle cx="17.59" cy="47.73" r="1.07" fill="rgb(69,82,250)"/><circle cx="13.06" cy="43.76" r="0.99" fill="rgb(57,87,253)"/><circle cx="9.65" cy="38.47" r="0.92" fill="rgb(49,91,254)"/><circle cx="7.74" cy="32.20" r="0.85" fill="rgb(46,92,255)"/><circle cx="7.61" cy="25.37" r="0.78" fill="rgb(48,91,254)"/><circle cx="9.42" cy="18.49" r="0.71" fill="rgb(56,88,253)"/><circle cx="13.19" cy="12.13" r="0.64" fill="rgb(68,82,250)"/><circle cx="18.77" cy="6.85" r="0.57" fill="rgb(84,75,246)"/><circle cx="25.84" cy="3.15" r="0.50" fill="rgb(102,68,242)"/></svg>